 <svg  version="1.0" xmlns="http://www.w3.org/2000/svg"  width="266.000000pt" height="73.000000pt" viewBox="0 0 266.000000 73.000000"  preserveAspectRatio="xMidYMid meet">  <g transform="translate(0.000000,73.000000) scale(0.100000,-0.100000)" fill="#ffc800" stroke="none"> <path d="M1319 719 c-7 -5 -38 -9 -66 -9 -29 0 -53 -4 -53 -10 0 -5 14 -10 31 -10 22 0 30 -4 26 -14 -4 -10 12 -13 80 -12 47 0 81 2 74 4 -24 8 -9 22 24 22 19 0 35 5 35 11 0 7 -18 10 -47 8 -27 -2 -57 2 -69 8 -12 7 -25 8 -35 2z"/> <path d="M745 691 c-3 -6 -19 -8 -35 -4 -35 7 -41 -11 -7 -21 33 -10 117 -13 117 -4 0 5 7 8 15 8 8 0 15 4 15 10 0 5 -12 8 -27 8 -16 -1 -38 1 -50 5 -12 5 -24 3 -28 -2z"/> <path d="M1009 689 c-7 -5 -26 -6 -41 -3 -17 3 -28 1 -28 -5 0 -6 7 -11 15 -11 8 0 15 -3 15 -8 0 -9 86 -6 118 3 30 10 28 27 -2 19 -13 -3 -33 -1 -43 4 -12 7 -24 7 -34 1z"/> <path d="M1890 690 c-8 -5 -25 -7 -37 -3 -14 3 -23 1 -23 -6 0 -6 7 -11 16 -11 9 0 14 -6 12 -12 -4 -10 -178 -13 -826 -14 -452 0 -824 -2 -826 -5 -7 -7 37 -91 76 -146 l36 -51 -51 -6 c-29 -3 -91 -8 -139 -12 -88 -6 -104 -13 -69 -30 11 -5 45 -33 77 -63 l57 -53 166 7 166 7 85 -40 c155 -73 588 -184 720 -185 128 -1 569 117 721 193 l64 32 168 -7 167 -7 56 54 c30 29 66 60 80 68 13 8 24 17 24 21 0 3 -60 9 -132 13 -73 4 -135 9 -137 11 -2 2 10 17 26 33 33 34 98 150 88 160 -3 3 -136 6 -295 6 -185 -1 -287 2 -283 9 3 5 23 7 44 4 22 -3 39 -1 39 4 0 5 7 9 15 9 8 0 15 4 15 9 0 5 -10 8 -22 8 -13 -1 -32 2 -43 6 -11 4 -27 2 -35 -3z m530 -64 c0 -10 -46 -84 -83 -133 -35 -47 -43 -53 -76 -53 -20 0 -42 5 -47 10 -7 7 -21 -2 -45 -30 -37 -44 -59 -51 -56 -20 1 11 8 20 17 20 9 0 26 9 39 21 12 11 34 22 49 24 14 1 37 16 52 33 31 37 70 100 70 113 0 5 -392 9 -1005 9 -689 0 -1005 -3 -1005 -10 0 -19 38 -84 69 -120 25 -29 32 -33 41 -20 5 8 10 10 10 4 0 -19 -24 -34 -57 -34 -25 0 -38 8 -59 33 -30 38 -84 133 -84 147 0 6 406 10 1085 10 597 0 1085 -2 1085 -4z m-175 -46 c3 -6 0 -10 -7 -11 -7 0 -35 -27 -62 -61 l-48 -60 -152 8 c-204 10 -1024 10 -1268 0 -151 -6 -198 -5 -198 4 0 11 -10 25 -68 100 l-24 30 911 0 c596 0 912 -3 916 -10z m-1465 -140 c8 -5 12 -10 7 -10 -4 0 11 -16 33 -36 44 -40 60 -39 42 1 -6 13 -8 26 -4 28 4 1 38 1 75 -1 58 -3 68 -6 65 -20 -3 -10 4 -26 15 -37 19 -20 19 -20 12 23 l-7 42 57 0 c65 0 95 -13 95 -40 0 -11 4 -20 8 -20 4 0 8 12 7 28 0 27 1 27 64 27 45 0 66 -4 69 -13 3 -10 -6 -13 -34 -10 -26 2 -39 -1 -39 -10 0 -6 3 -12 8 -12 4 0 23 0 42 0 31 0 35 3 35 25 l0 25 103 0 c67 0 107 -4 115 -12 9 -9 15 -9 24 0 7 7 22 12 34 12 20 0 23 -5 21 -42 -2 -40 -4 -43 -33 -46 -19 -2 -36 3 -44 12 -15 19 -41 21 -38 4 2 -10 -60 -13 -279 -15 -273 -1 -283 -1 -283 18 0 10 -5 19 -11 19 -6 0 -8 -9 -4 -20 6 -19 2 -20 -62 -20 -42 0 -74 5 -82 13 -10 10 -14 9 -22 -5 -6 -11 -22 -18 -41 -18 -30 0 -30 1 -23 38 3 20 14 43 23 50 14 11 14 12 -4 13 -18 0 -18 1 1 9 27 12 37 12 55 0z m1000 -19 c0 -5 -9 -11 -20 -14 -15 -4 -20 -14 -20 -36 0 -30 -2 -31 -41 -31 -29 0 -40 4 -36 13 19 50 18 57 -3 57 -12 0 -18 5 -15 10 8 12 135 13 135 1z m135 -1 c4 -6 -7 -10 -24 -10 -32 0 -44 -19 -13 -21 12 -1 10 -3 -6 -7 -30 -9 -29 -26 2 -30 20 -3 28 4 41 32 17 35 19 36 70 36 65 0 115 -9 115 -22 0 -5 -5 -6 -10 -3 -14 8 -42 -14 -34 -27 3 -5 1 -15 -5 -22 -9 -10 -42 -13 -143 -9 -73 2 -134 5 -135 7 -5 5 22 71 32 78 15 11 103 9 110 -2z m-1345 -20 c25 -25 30 -25 30 1 0 17 5 20 33 17 17 -2 31 -6 30 -10 -2 -5 -3 -24 -3 -43 0 -34 -1 -35 -42 -35 -35 0 -49 6 -80 37 -21 20 -38 41 -38 45 0 16 51 7 70 -12z m-110 -20 c7 -16 16 -31 21 -31 5 -1 14 -3 19 -4 6 -1 15 -3 22 -4 6 0 9 -4 5 -7 -3 -3 -80 -8 -171 -10 l-166 -4 -15 30 c-9 17 -20 30 -25 30 -6 0 -10 4 -10 10 0 8 47 12 241 18 65 2 67 1 79 -28z m1837 0 c-9 -40 14 -40 43 0 21 30 23 31 83 24 66 -7 91 -18 60 -28 -10 -3 -23 -16 -28 -28 -9 -21 -17 -23 -106 -26 -80 -2 -100 0 -114 14 -12 12 -19 14 -28 5 -14 -14 -87 -15 -87 -1 0 6 6 10 13 10 7 0 26 14 42 30 24 25 36 30 78 30 l50 0 -6 -30z m-393 -78 c21 -12 -223 -94 -453 -152 l-117 -29 -129 29 c-178 40 -355 93 -450 136 -14 6 9 10 80 15 122 7 1056 8 1069 1z m-1211 -31 c114 -53 334 -118 544 -160 l95 -19 132 30 c129 28 311 79 364 100 15 6 36 14 47 18 11 5 46 20 79 34 56 25 116 34 116 19 0 -34 -548 -197 -705 -209 -79 -6 -272 30 -485 91 -140 40 -310 106 -304 117 10 16 56 7 117 -21z"/> <path d="M550 556 c0 -2 18 -15 40 -30 50 -33 79 -33 127 0 51 34 51 34 15 34 -17 0 -37 -7 -46 -15 -8 -8 -23 -15 -34 -15 -11 0 -25 7 -32 15 -11 13 -70 22 -70 11z"/> <path d="M782 544 c-9 -10 -9 -14 1 -17 9 -4 9 -6 0 -6 -7 -1 -13 -5 -13 -11 0 -6 30 -10 70 -10 57 0 70 3 70 16 0 8 -6 21 -13 28 -16 16 -99 16 -115 0z"/> <path d="M944 545 c-11 -8 -14 -15 -6 -15 6 0 12 -7 12 -15 0 -11 11 -15 37 -15 35 0 36 1 17 15 -19 14 -19 14 1 15 20 1 20 1 1 15 -11 8 -25 15 -31 15 -6 0 -20 -7 -31 -15z"/> <path d="M1044 545 c-11 -8 -14 -15 -6 -15 6 0 12 -7 12 -15 0 -11 11 -15 43 -14 39 0 40 1 17 11 -21 9 -22 12 -7 15 24 6 21 20 -5 27 -31 8 -32 8 -54 -9z"/> <path d="M1810 549 c0 -18 -3 -24 -19 -36 -13 -10 0 -12 67 -13 86 0 101 9 65 40 -20 17 -113 24 -113 9z"/> <path d="M1175 541 c-17 -3 -30 -13 -30 -21 0 -22 130 -27 138 -6 4 9 3 17 -1 19 -16 10 -79 14 -107 8z"/> <path d="M1348 542 c-30 -2 -38 -7 -38 -23 0 -14 7 -19 30 -19 19 0 29 5 28 13 -3 13 44 22 70 12 14 -5 14 -7 2 -15 -10 -7 8 -10 56 -10 77 0 90 5 69 26 -14 14 -137 23 -217 16z"/> <path d="M1643 543 c-24 -3 -33 -9 -33 -24 0 -14 7 -19 25 -19 16 0 25 6 25 15 0 9 9 15 25 15 16 0 25 -6 25 -15 0 -9 9 -15 25 -15 18 0 25 5 25 20 0 11 -6 20 -14 20 -7 0 -26 2 -42 4 -16 2 -44 2 -61 -1z"/> <path d="M1963 520 c1 -18 8 -20 74 -20 42 0 73 4 73 10 0 6 -5 10 -11 10 -5 0 -7 5 -4 10 4 6 -20 10 -64 10 -64 0 -70 -2 -68 -20z"/> <path d="M1425 411 l-30 -7 25 -8 c25 -8 25 -9 3 -13 -36 -7 -27 -23 12 -23 32 0 35 2 35 30 0 17 -3 29 -7 29 -5 -1 -21 -4 -38 -8z"/> <path d="M1559 672 c22 -15 89 -18 129 -6 45 13 20 21 -65 21 -79 -1 -85 -2 -64 -15z"/> </g> </svg>